<svg width="438" height="273" viewBox="0 0 438 273" fill="none" xmlns="http://www.w3.org/2000/svg">
<path d="M422.262 252.115C422.262 250.855 421.764 249.648 420.867 248.736C419.97 247.85 418.765 247.341 417.496 247.341C405.825 247.341 375.933 247.341 364.262 247.341C363.003 247.341 361.788 247.85 360.891 248.736C359.994 249.621 359.496 250.855 359.496 252.115C359.496 253.376 359.994 254.583 360.891 255.495C361.788 256.38 362.993 256.89 364.262 256.89C375.933 256.89 405.825 256.89 417.496 256.89C418.755 256.89 419.97 256.38 420.867 255.495C421.764 254.61 422.262 253.376 422.262 252.115Z" fill="white"/>
<path d="M187.526 230.241C187.526 227.613 185.391 225.467 182.764 225.467C174.564 225.467 157.879 225.467 149.679 225.467C147.046 225.467 144.917 227.613 144.917 230.241C144.917 232.87 147.052 235.016 149.679 235.016C157.879 235.016 174.564 235.016 182.764 235.016C185.391 235.016 187.526 232.897 187.526 230.241Z" fill="#E1E1E1"/>
<path d="M23.5576 242.592C23.5576 239.963 21.4243 237.817 18.7929 237.817C16.4352 237.817 13.5965 237.817 11.2388 237.817C8.60738 237.817 6.47412 239.963 6.47412 242.592C6.47412 245.221 8.60738 247.366 11.2388 247.366C13.5965 247.366 16.4352 247.366 18.7929 247.366C21.4243 247.34 23.5576 245.221 23.5576 242.592Z" fill="#E1E1E1"/>
<path d="M397.887 225.493C397.887 222.865 395.753 220.719 393.122 220.719C390.764 220.719 387.926 220.719 385.568 220.719C382.936 220.719 380.803 222.865 380.803 225.493C380.803 228.122 382.936 230.268 385.568 230.268C387.926 230.268 390.764 230.268 393.122 230.268C395.753 230.241 397.887 228.122 397.887 225.493Z" fill="white"/>
<path d="M144.914 258.707C144.914 257.446 144.407 256.239 143.518 255.327C142.629 254.442 141.408 253.933 140.147 253.933C127.129 253.933 91.0721 253.933 78.0538 253.933C76.7923 253.933 75.5825 254.442 74.6829 255.327C73.7936 256.213 73.2869 257.446 73.2869 258.707C73.2869 259.968 73.7936 261.175 74.6829 262.087C75.5721 262.972 76.7923 263.482 78.0538 263.482C91.0721 263.482 127.129 263.482 140.147 263.482C141.408 263.482 142.618 262.972 143.518 262.087C144.407 261.175 144.914 259.968 144.914 258.707Z" fill="#E1E1E1"/>
<path d="M278.499 44.9307H167.937V79.5473H278.499V44.9307Z" fill="#00D5FF"/>
<path d="M400.989 101.439H344.609V132.33H400.989V101.439Z" fill="#FF5784"/>
<path d="M218.929 138.408H140.596V202.735H218.929V138.408Z" fill="#FFC700"/>
<path d="M312.617 135.138C320.893 121.526 318.084 105.219 306.343 98.7319C294.603 92.2449 278.363 98.0256 270.086 111.637L312.617 135.138Z" fill="#FF5784"/>
<path d="M316.406 81.311C316.406 81.311 305.728 85.8176 298.56 79.2699C291.011 72.3585 295.198 67.569 298.031 67.2659C306.362 66.4171 316.406 81.311 316.406 81.311Z" fill="#3D248A"/>
<path d="M268.981 149.05L256.832 172.27C253.926 177.828 251.827 183.708 250.737 189.811C249.647 195.854 249.405 202.017 250.172 208.181L250.979 214.506L251.443 219.963L262.362 219.013L261.897 213.557L261.615 207.191C261.393 202.24 261.998 197.329 263.229 192.58C264.46 187.912 266.479 183.466 269.082 179.323L283.047 157.154L287.084 150.121L273.017 142.018L268.981 149.05Z" fill="#3D248A"/>
<path d="M288.227 162.094L288.522 182.619C288.608 188.688 290.243 194.361 293.432 198.99C296.542 203.528 300.858 207.227 306.244 209.266L313.017 211.842L317.932 213.987L322.922 203.761L318.006 201.616L311.54 198.392C308.494 196.878 306.226 194.394 304.642 191.515C303.121 188.743 302.581 185.465 302.855 182.063L304.516 161.45L304.779 153.241L288.49 153.885L288.227 162.094Z" fill="#3D248A"/>
<path d="M252.665 230.542L252.176 227.706L251.85 223.852L259.551 223.206L259.877 227.06L259.855 232.326L260.083 235.006L248.787 237.867L246.311 238.68L244.692 233.714L247.169 232.9L252.665 230.542Z" fill="#FF5784"/>
<path d="M245.6 242.467L260.247 238.459C260.688 238.33 260.957 237.877 260.835 237.425C260.712 236.972 260.247 236.714 259.806 236.843L245.159 240.851C244.718 240.98 244.448 241.432 244.571 241.885C244.693 242.337 245.159 242.596 245.6 242.467Z" fill="#3D248A"/>
<path d="M251.664 227.563C252.33 227.603 252.996 227.482 253.662 227.523C254.126 227.543 254.51 227.179 254.55 226.734C254.57 226.27 254.227 225.886 253.763 225.845C253.117 225.805 252.451 225.946 251.785 225.906C251.321 225.865 250.917 226.229 250.897 226.694C250.837 227.118 251.2 227.523 251.664 227.563Z" fill="#3D248A"/>
<path d="M251.967 230.594C252.653 230.736 253.359 230.938 254.046 231.059C254.51 231.14 254.934 230.837 255.014 230.392C255.095 229.927 254.792 229.503 254.328 229.422C253.642 229.301 252.976 229.119 252.29 228.978C251.846 228.876 251.402 229.18 251.301 229.624C251.22 230.069 251.523 230.513 251.967 230.594Z" fill="#3D248A"/>
<path d="M329.275 217.402L326.76 216.437L323.544 214.824L327.649 207.646L330.864 209.259L334.978 211.879L337.215 213L332.694 224.473L331.849 227.081L326.988 226.069L327.832 223.462L329.275 217.402Z" fill="#FF5784"/>
<path d="M334.928 229.805L340.325 215.247C340.481 214.805 340.296 214.356 339.885 214.245C339.475 214.135 339.013 214.412 338.857 214.855L333.459 229.412C333.303 229.854 333.489 230.303 333.899 230.414C334.31 230.525 334.772 230.247 334.928 229.805Z" fill="#3D248A"/>
<path d="M326.09 216.591C326.508 216.032 326.802 215.395 327.22 214.835C327.505 214.442 327.451 213.933 327.136 213.684C326.794 213.442 326.303 213.555 326.003 213.939C325.597 214.481 325.318 215.128 324.9 215.687C324.6 216.071 324.642 216.597 324.984 216.839C325.299 217.088 325.79 216.975 326.09 216.591Z" fill="#3D248A"/>
<path d="M328.809 218.015C329.319 217.484 329.887 216.965 330.381 216.424C330.714 216.058 330.73 215.541 330.437 215.255C330.128 214.959 329.626 215.018 329.292 215.384C328.798 215.925 328.27 216.419 327.76 216.949C327.423 217.288 327.395 217.823 327.677 218.127C327.97 218.412 328.488 218.363 328.809 218.015Z" fill="#3D248A"/>
<path d="M269.667 147.959L288.335 161.661L303.733 162.409L305.63 153.092L273.32 141.978L269.667 147.959Z" fill="#3D248A"/>
<path d="M298.19 129.869L287.652 123.565C287.483 123.47 287.409 123.262 287.468 123.045C287.526 122.828 287.67 122.659 287.85 122.593L302.923 117.648C303.174 117.563 303.419 117.736 303.445 118C303.471 118.264 303.294 118.558 303.044 118.644L289.144 123.211L299.789 129.598C299.958 129.693 300.032 129.901 299.973 130.118C299.915 130.335 299.771 130.504 299.56 130.565L286.474 133.684L296.084 139.337C296.253 139.432 296.327 139.64 296.268 139.857C296.209 140.074 296.066 140.243 295.855 140.303L282.365 144.195C282.115 144.281 281.869 144.108 281.852 143.813C281.826 143.548 282.002 143.255 282.253 143.169L294.507 139.644L284.813 133.943C284.644 133.848 284.57 133.641 284.629 133.424C284.687 133.207 284.839 133.006 285.042 132.977L298.19 129.869Z" fill="#3D248A"/>
<path d="M275.04 99.575C270.701 102.222 267.048 102.889 264.021 102.263C261.216 101.677 258.975 99.9792 257.24 97.7764C254.596 94.4016 253.123 89.8748 252.719 86.1968C252.699 85.9139 252.437 85.7118 252.154 85.7522C251.872 85.7724 251.67 86.0352 251.71 86.3181C252.114 90.1577 253.668 94.8866 256.433 98.4029C258.309 100.788 260.772 102.606 263.799 103.253C267.028 103.94 270.943 103.273 275.564 100.444C275.807 100.303 275.887 99.9792 275.726 99.7367C275.585 99.4942 275.262 99.4336 275.04 99.575Z" fill="#3D248A"/>
<path d="M250.379 81.2573C250.178 78.0845 249.35 74.4873 247.332 71.9612C246.989 71.5369 246.262 70.7487 245.536 70.4052C244.89 70.102 244.224 70.102 243.699 70.6881C243.376 71.0316 243.195 71.4762 243.155 71.9612C243.074 72.5877 243.195 73.2546 243.336 73.8002C243.82 75.6392 244.507 77.4176 244.93 79.2566C244.991 79.5193 245.274 79.7012 245.536 79.6406C245.798 79.58 245.98 79.297 245.919 79.0343C245.475 77.1751 244.789 75.3967 244.305 73.5375C244.204 73.1738 244.123 72.7292 244.123 72.3048C244.123 71.9612 244.204 71.6177 244.426 71.355C244.608 71.1529 244.85 71.1933 245.092 71.3146C245.677 71.5975 246.262 72.2442 246.525 72.5877C248.422 74.9521 249.169 78.3472 249.35 81.3179C249.37 81.6008 249.612 81.8029 249.895 81.7827C250.178 81.7827 250.4 81.5402 250.379 81.2573Z" fill="#3D248A"/>
<path d="M248.217 83.0609C247.814 82.1111 247.43 81.1411 246.865 80.2519C246.3 79.3627 245.351 78.6554 244.383 78.3523C243.676 78.1502 242.97 78.1704 242.405 78.4735C241.8 78.7969 241.295 79.4436 241.134 80.5551C240.992 81.5251 241.315 82.5355 241.921 83.4651C242.748 84.7585 244.12 85.8902 245.23 86.456C245.654 86.6783 246.401 86.9612 247.087 87.0016C247.652 87.0421 248.157 86.9006 248.5 86.5368C248.702 86.3348 248.681 86.0114 248.48 85.8295C248.278 85.6274 247.955 85.6476 247.773 85.8497C247.632 86.0114 247.39 86.0316 247.148 86.0114C246.623 85.9912 246.038 85.7487 245.695 85.587C244.706 85.0818 243.515 84.0916 242.788 82.9599C242.344 82.2526 242.042 81.4847 242.163 80.7571C242.264 80.07 242.526 79.6254 242.91 79.4234C243.273 79.2415 243.697 79.2617 244.141 79.3829C244.887 79.6052 245.614 80.1509 246.058 80.838C246.583 81.6665 246.946 82.5759 247.329 83.4853C247.43 83.748 247.733 83.8693 247.995 83.7682C248.197 83.6066 248.338 83.3236 248.217 83.0609Z" fill="#3D248A"/>
<path d="M241.537 81.9295C241.093 81.8688 240.629 81.788 240.165 81.8486C238.591 82.0103 237.925 83.728 238.268 85.1022C238.53 86.1935 240.044 87.9315 241.638 88.7196C242.829 89.2855 244.04 89.3259 244.887 88.4367C245.089 88.2346 245.069 87.9113 244.867 87.7294C244.665 87.5273 244.343 87.5475 244.161 87.7496C243.616 88.3154 242.849 88.174 242.082 87.8102C240.77 87.1635 239.479 85.7691 239.257 84.8799C239.055 84.0716 239.338 82.9803 240.286 82.8793C240.649 82.8389 241.033 82.9197 241.396 82.9601C241.679 83.0005 241.921 82.7984 241.961 82.5357C242.022 82.2124 241.82 81.9699 241.537 81.9295Z" fill="#3D248A"/>
<path d="M241.846 93.3292C242.472 96.9061 244.126 100.321 245.862 103.474C249.918 110.87 259.848 123.218 277.103 118.55C277.365 118.469 277.526 118.206 277.466 117.923C277.385 117.661 277.123 117.499 276.84 117.559C260.211 122.046 250.665 110.102 246.75 102.989C245.075 99.9172 243.44 96.6232 242.835 93.1473C242.795 92.8644 242.532 92.6825 242.25 92.7431C241.987 92.7835 241.806 93.0462 241.846 93.3292Z" fill="#3D248A"/>
<path d="M299.152 78.4383C295.739 82.1756 295.109 85.6958 296.126 88.2999C297.167 90.9521 299.879 92.7364 303.316 92.9293C304.478 93.0016 305.689 92.7123 306.778 92.3265C309.321 91.4585 310.894 89.8189 312.105 87.8418C313.243 85.9369 314.041 83.7187 314.961 81.5728C315.083 81.3075 314.961 81.0182 314.695 80.8977C314.429 80.7771 314.138 80.8976 314.017 81.1629C313.097 83.2606 312.347 85.4547 311.233 87.3113C310.144 89.0955 308.739 90.5663 306.464 91.362C305.495 91.6996 304.406 91.9648 303.389 91.8925C300.411 91.6996 297.99 90.2047 297.094 87.89C296.174 85.5512 296.852 82.4408 299.927 79.0893C300.121 78.8723 300.096 78.5588 299.903 78.366C299.661 78.2213 299.346 78.2454 299.152 78.4383Z" fill="#3D248A"/>
<path d="M316.647 81.3272C316.647 81.3272 309.212 74.7164 307.126 72.3937C300.956 65.497 312.725 59.3507 315.898 68.7488C317.664 73.9302 316.826 78.0218 316.647 81.3272Z" fill="#3D248A"/>
<path d="M311.513 87.2043C315.045 85.3451 319.379 82.6169 320.986 78.9591C321.768 77.1606 321.198 74.5738 318.681 75.6651C316.715 76.5341 315.7 78.4135 314.77 80.1919C313.776 82.0713 311.513 87.2043 311.513 87.2043Z" fill="#3D248A"/>
<path d="M331.971 157.614C336.253 150.653 337.051 140.014 334.674 130.618C332.039 120.27 325.306 110.278 316.472 106.343C312.267 104.48 308.084 105.97 306.928 110.352C305.787 114.73 308.423 119.318 312.235 122.253C318.052 126.71 320.974 128.671 323.197 133.986C325.722 140.007 326.719 146.733 324.777 152.068C324.687 152.324 324.811 152.646 325.05 152.783C325.294 152.938 325.555 152.854 325.645 152.598C327.677 147.007 326.657 139.974 324.02 133.668C321.704 128.122 318.709 126.042 312.651 121.391C309.233 118.769 306.788 114.7 307.811 110.78C308.825 106.882 312.555 105.62 316.271 107.271C324.78 111.051 331.244 120.718 333.765 130.684C336.075 139.784 335.314 150.102 331.154 156.856C331.016 157.066 331.096 157.398 331.308 157.6C331.548 157.834 331.833 157.823 331.971 157.614Z" fill="#3D248A"/>
<path d="M318.935 158.566C318.29 158.509 317.608 158.471 316.963 158.357C315.923 158.186 314.955 157.825 314.202 157.027C313.001 155.792 313.521 153.646 314.919 152.886C315.744 152.43 316.837 152.487 317.716 152.601C319.079 152.772 320.549 153.114 321.858 153.551C322.126 153.646 322.27 153.931 322.18 154.197C322.091 154.462 321.804 154.614 321.535 154.519C320.28 154.102 318.881 153.779 317.59 153.627C316.909 153.532 316.067 153.437 315.439 153.779C314.596 154.253 314.238 155.545 314.973 156.305C315.582 156.932 316.353 157.198 317.178 157.331C318.092 157.483 319.061 157.502 319.921 157.597C320.136 157.616 320.244 157.73 320.316 157.825C320.387 157.92 320.423 158.034 320.423 158.167C320.423 158.243 320.387 158.357 320.334 158.471C320.28 158.547 320.154 158.68 320.118 158.737C320.029 158.87 319.939 159.022 319.832 159.155C319.509 159.61 319.168 160.028 318.81 160.427C318.559 160.712 318.29 160.997 318.021 161.282C317.483 161.871 316.604 162.916 316.228 163.98C316.031 164.568 315.959 165.138 316.318 165.613C316.425 165.746 316.604 165.803 316.784 165.803C317.035 165.822 317.304 165.765 317.519 165.689C318.11 165.461 318.63 165.024 319.114 164.53C319.67 163.98 320.172 163.372 320.656 162.878C320.979 162.555 321.266 162.213 321.571 161.89C321.589 161.871 321.804 161.605 321.858 161.567C322.109 161.358 322.342 161.453 322.413 161.472C322.557 161.529 322.628 161.624 322.682 161.7C322.754 161.814 322.79 161.966 322.754 162.118C322.736 162.232 322.664 162.384 322.521 162.517C322.431 162.612 322.27 162.726 322.198 162.821C321.929 163.201 321.696 163.6 321.463 163.999C321.087 164.644 320.62 165.347 320.352 166.107C320.118 166.734 320.047 167.399 320.405 168.064C320.495 168.216 320.62 168.254 320.764 168.235C320.925 168.235 321.105 168.178 321.266 168.102C322.252 167.703 322.862 166.601 323.453 165.727C323.704 165.366 323.955 164.986 324.152 164.587C324.224 164.435 324.296 164.265 324.386 164.113C324.421 164.037 324.529 163.809 324.565 163.79C324.798 163.486 325.085 163.581 325.174 163.619C325.21 163.638 325.605 163.79 325.461 164.265C325.156 165.328 324.583 166.525 324.35 167.722C324.134 168.748 324.188 169.773 325.049 170.609C325.461 171.008 325.945 170.856 326.394 170.552C326.967 170.153 327.487 169.507 327.756 169.014C329.011 166.658 329.603 163.676 328.742 161.111C328.617 160.731 328.473 160.142 328.24 159.629C328.133 159.382 328.007 159.155 327.846 159.041C327.613 158.889 327.541 158.566 327.702 158.319C327.864 158.091 328.186 158.015 328.42 158.186C328.724 158.395 328.993 158.775 329.19 159.212C329.424 159.743 329.585 160.389 329.728 160.788C330.679 163.638 330.069 166.924 328.671 169.507C328.276 170.248 327.415 171.274 326.501 171.692C325.766 172.034 324.995 172.015 324.332 171.35C323.256 170.286 323.077 169.033 323.292 167.741C322.826 168.311 322.306 168.805 321.66 169.071C320.889 169.375 319.975 169.412 319.509 168.558C318.989 167.627 319.061 166.677 319.383 165.765C319.401 165.727 319.419 165.689 319.437 165.651C318.953 166.088 318.433 166.468 317.859 166.677C317.465 166.829 316.909 166.905 316.443 166.81C316.067 166.734 315.726 166.563 315.493 166.24C314.919 165.48 314.919 164.568 315.26 163.638C315.69 162.441 316.658 161.244 317.25 160.598C317.501 160.313 317.77 160.028 318.039 159.743C318.326 159.382 318.648 158.984 318.935 158.566Z" fill="#3D248A"/>
<path d="M239.172 85.5628C238.829 85.583 238.446 85.7245 238.183 85.9468C236.993 86.9976 237.255 88.6345 238.103 89.8066C238.809 90.7969 240.121 91.5042 241.332 91.5042C241.856 91.5042 242.321 91.3425 242.805 91.2415C243.087 91.1808 243.249 90.9181 243.209 90.6554C243.148 90.3725 242.886 90.1906 242.623 90.2513C242.179 90.3321 241.776 90.4937 241.332 90.4937C240.424 90.4937 239.475 89.9481 238.95 89.2206C238.405 88.4729 238.123 87.4018 238.89 86.7147C238.991 86.6339 239.132 86.5934 239.253 86.5732C239.536 86.553 239.737 86.3105 239.737 86.0276C239.697 85.7649 239.455 85.5426 239.172 85.5628Z" fill="#3D248A"/>
<path d="M324.549 68.3481C326.265 66.4081 328.364 64.6903 329.817 62.528C329.978 62.3057 329.917 61.9824 329.675 61.8207C329.453 61.659 329.13 61.7197 328.969 61.9622C327.536 64.0841 325.478 65.7816 323.782 67.6812C323.601 67.8833 323.621 68.2067 323.823 68.3886C324.045 68.5704 324.368 68.5502 324.549 68.3481Z" fill="#3D248A"/>
<path d="M328.444 75.0576C332.359 74.0674 336.335 72.774 340.291 72.0263C340.573 71.9657 340.755 71.703 340.694 71.4402C340.634 71.1573 340.371 70.9754 340.109 71.0361C336.133 71.7636 332.137 73.0772 328.202 74.0674C327.94 74.128 327.758 74.411 327.839 74.6939C327.899 74.9768 328.182 75.1385 328.444 75.0576Z" fill="#3D248A"/>
<path d="M327.657 82.3326C330.341 82.9994 333.167 83.8886 335.81 84.7374C336.073 84.8182 336.355 84.6768 336.456 84.4141C336.537 84.1514 336.396 83.8684 336.133 83.7674C333.469 82.9186 330.644 82.0092 327.92 81.3423C327.657 81.2817 327.375 81.4434 327.314 81.7061C327.213 81.989 327.375 82.2517 327.657 82.3326Z" fill="#3D248A"/>
<path d="M105.987 118.167C99.7072 98.9022 81.2553 86.2416 64.7927 89.9022C48.33 93.5629 40.0682 112.164 46.3479 131.429L105.987 118.167Z" fill="#00D5FF"/>
<path d="M56.9014 71.6899C56.9014 71.6899 66.7709 76.907 74.4771 70.5423C82.5943 63.823 79.066 58.6621 76.3463 58.1978C68.345 56.8767 56.9014 71.6899 56.9014 71.6899Z" fill="#3D248A"/>
<path d="M84.7562 149.538L93.3419 189.301L93.8223 191.803L97.7266 216.042L98.3897 221.422L108.376 218.089L107.713 212.709L105.521 187.899L105.138 184.635L99.3964 143.745L98.0118 135.924L83.3365 141.71L84.7562 149.538Z" fill="#3D248A"/>
<path d="M56.2646 148.424L55.7193 182.006L55.5177 184.641L50.1323 216.431L49.0374 221.626L59.3433 226.011L60.4382 220.816L68.1518 190L68.8741 185.452L71.8392 152.514L72.2654 144.426L56.6846 140.363L56.2646 148.424Z" fill="#3D248A"/>
<path d="M48.5863 235.795L52.3208 239.667L54.1001 241.158L50.6153 245.738L48.836 244.247L42.1996 239.83L40.3652 238.294L43.8887 230.32L45.7954 226.515L52.1242 229.248L50.2175 233.053L48.5863 235.795Z" fill="#00D5FF"/>
<path d="M51.6922 247.85L40.2447 239.255C39.9039 238.987 39.3586 239.155 39.0559 239.587C38.7435 240.042 38.7853 240.61 39.126 240.879L50.5736 249.474C50.9144 249.742 51.4597 249.574 51.7624 249.142C52.0747 248.687 52.0329 248.119 51.6922 247.85Z" fill="#3D248A"/>
<path d="M50.9898 231.574C50.3772 231.428 49.8539 231.116 49.2503 230.949C48.8269 230.838 48.3425 231.169 48.1559 231.668C47.9692 232.166 48.1784 232.645 48.6018 232.755C49.2143 232.901 49.7467 233.24 50.3682 233.364C50.7916 233.475 51.2759 233.143 51.4626 232.645C51.6223 232.162 51.4221 231.662 50.9898 231.574Z" fill="#3D248A"/>
<path d="M49.4695 234.27C48.8002 234.226 48.131 234.23 47.4705 234.164C47.0242 234.119 46.5621 234.5 46.4395 234.987C46.3169 235.475 46.5689 235.937 47.0061 235.956C47.6845 236.027 48.3803 236.007 49.0496 236.051C49.4781 236.091 49.9402 235.71 50.0538 235.196C50.1676 234.729 49.9068 234.288 49.4695 234.27Z" fill="#3D248A"/>
<path d="M95.4921 142.008L73.8619 153.238L59.4079 151.239L60.6474 140.953L94.0405 134.961L95.4921 142.008Z" fill="#3D248A"/>
<path d="M73.5701 69.971C76.1753 73.5822 76.4589 76.8161 75.3263 79.1736C74.1963 81.5062 71.679 82.9143 68.7683 82.9535C67.7736 82.9735 66.7493 82.6177 65.8451 82.2436C63.7242 81.3284 62.5069 79.7146 61.6745 77.8226C60.7798 75.8524 60.299 73.5557 59.6664 71.3504C59.5788 71.0712 59.3105 70.9316 59.0386 71.0414C58.7666 71.1511 58.64 71.4435 58.7041 71.7215C59.3548 73.9777 59.8799 76.3017 60.7691 78.3216C61.6972 80.4184 63.0626 82.1901 65.431 83.2187C66.4472 83.6489 67.5863 84.0359 68.7219 84.0237C72.0581 83.983 74.9134 82.2942 76.2196 79.6469C77.4996 77.0231 77.2857 73.369 74.3951 69.3429C74.2316 69.1094 73.9263 69.0925 73.6932 69.2793C73.442 69.4151 73.4067 69.7375 73.5701 69.971Z" fill="#3D248A"/>
<path d="M56.5893 71.4641C56.5893 71.4641 64.367 65.1554 66.6008 62.9111C73.2097 56.246 62.7293 49.3971 58.6849 58.7551C56.4385 63.9318 56.7824 68.1227 56.5893 71.4641Z" fill="#3D248A"/>
<path d="M60.8698 77.4697C57.6992 75.3917 53.8569 72.3872 52.7264 68.581C52.1781 66.7099 53.0115 64.1085 55.2967 65.3516C57.0808 66.3396 57.8427 68.3052 58.5348 70.1636C59.2764 72.1282 60.8698 77.4697 60.8698 77.4697Z" fill="#3D248A"/>
<path d="M29.7793 170.914C29.5719 172.275 29.0424 173.532 27.7445 174.431C26.9513 174.997 26.2676 174.862 25.7153 174.404C25.0332 173.816 24.6021 172.618 24.4648 171.787C24.0428 168.88 24.5153 165.407 26.2146 162.669C26.4489 162.282 26.7911 161.649 27.1776 161.147C27.4872 160.734 27.8429 160.392 28.1776 160.231C28.4312 160.116 28.6998 160.23 28.7726 160.492C28.8454 160.754 28.6822 161.072 28.4228 161.206C28.2446 161.295 28.0631 161.507 27.8916 161.741C27.5326 162.207 27.218 162.804 26.9895 163.172C25.4299 165.669 25.0411 168.808 25.428 171.441C25.5142 171.993 25.7603 172.743 26.162 173.254C26.4658 173.644 26.8483 173.884 27.3369 173.547C28.3636 172.821 28.7217 171.799 28.8471 170.71C29.0035 169.463 28.8695 168.117 28.9272 166.974C28.9405 166.482 29.3429 166.376 29.3806 166.363C29.4718 166.339 29.7556 166.292 29.8686 166.644C29.8786 166.666 29.9037 166.919 29.928 167.006C29.9606 167.177 29.9556 167.362 29.9883 167.533C30.0402 167.976 30.1457 168.409 30.257 168.823C30.5123 169.821 30.7133 171.056 31.4648 171.637C31.5903 171.723 31.7317 171.813 31.869 171.86C31.9962 171.885 32.1292 171.891 32.2397 171.748C32.7568 171.148 32.8982 170.455 32.8906 169.752C32.8805 168.946 32.6896 168.126 32.5548 167.398C32.471 166.949 32.3873 166.5 32.2659 166.063C32.2316 165.954 32.1237 165.809 32.0735 165.696C31.9931 165.515 31.9705 165.366 31.9897 165.246C32.0206 165.088 32.0776 164.955 32.1822 164.831C32.2533 164.762 32.3621 164.681 32.491 164.644C32.5663 164.618 32.7963 164.58 32.9545 164.838C32.9905 164.886 33.0993 165.196 33.1094 165.219C33.2801 165.603 33.4392 166.026 33.6158 166.39C33.8928 166.981 34.1506 167.691 34.4737 168.352C34.7507 168.943 35.0872 169.503 35.5315 169.818C35.683 169.93 35.904 170.035 36.1483 170.062C36.3132 170.074 36.4839 170.066 36.6203 169.949C37.0847 169.525 37.2026 168.909 37.2034 168.291C37.1974 167.135 36.7404 165.912 36.445 165.215C36.3102 164.879 36.1595 164.54 36.0088 164.201C35.8138 163.73 35.6464 163.223 35.4949 162.719C35.4564 162.567 35.402 162.412 35.3694 162.241C35.3451 162.154 35.2689 162.015 35.2605 161.931C35.232 161.802 35.2513 161.682 35.2747 161.604C35.3157 161.468 35.3826 161.357 35.4755 161.272C35.5684 161.188 35.6931 161.109 35.8956 161.108C36.6881 161.16 37.5525 161.309 38.4102 161.313C39.1826 161.32 39.9483 161.182 40.6822 160.646C41.5625 160.015 41.6485 158.609 41.0476 157.976C40.5965 157.516 39.8041 157.464 39.1865 157.446C37.9731 157.393 36.6551 157.464 35.4133 157.673C35.1455 157.724 34.938 157.518 34.9405 157.23C34.9429 156.942 35.1638 156.656 35.4257 156.624C36.7211 156.405 38.1303 156.311 39.3914 156.373C40.2056 156.409 41.1931 156.541 41.7839 157.152C42.784 158.193 42.5675 160.48 41.1433 161.52C40.2195 162.184 39.2497 162.385 38.2848 162.401C37.6773 162.406 37.0614 162.326 36.4715 162.272C36.6129 162.753 36.7602 163.215 36.9452 163.664C37.0799 163.999 37.2306 164.338 37.3812 164.677C37.701 165.461 38.2066 166.859 38.2092 168.138C38.2084 169.148 37.9374 170.105 37.2002 170.764C36.8999 171.034 36.5392 171.17 36.1818 171.182C35.7233 171.195 35.2697 171.024 34.9668 170.799C34.5383 170.488 34.1943 170.008 33.8838 169.473C33.888 169.515 33.8922 169.557 33.8964 169.599C33.9015 170.59 33.6723 171.576 32.9243 172.439C32.2474 173.233 31.4482 173.035 30.8582 172.59C30.326 172.176 30.0171 171.579 29.7793 170.914Z" fill="#3D248A"/>
<path d="M144.36 89.2766C144.782 88.9752 145.186 88.6554 145.571 88.3353C145.861 88.0863 146.15 87.8192 146.44 87.552C147.193 86.8936 151.036 83.3858 153.79 81.7429C154.556 81.2835 155.241 80.9857 155.77 80.8846C156.261 80.7829 156.671 80.879 156.928 81.0994C157.221 81.3385 157.398 81.6844 157.462 82.0649C157.541 82.5541 157.449 83.0951 157.287 83.4905C157.124 83.904 156.403 84.7798 155.433 85.7967C154.23 87.0634 152.625 88.6138 151.33 89.8251C151.368 89.8075 151.424 89.7903 151.463 89.7727C152.374 89.46 153.314 89.4007 154.218 89.9374C155.049 90.4189 154.984 91.3399 154.66 92.1127C154.377 92.7595 153.873 93.2768 153.296 93.7388C154.579 93.5396 155.813 93.7194 156.831 94.8362C157.468 95.5138 157.444 96.2908 157.103 97.0272C156.662 97.943 155.622 98.7782 154.878 99.1836C152.263 100.539 148.997 101.109 146.228 100.13C145.838 99.9983 145.204 99.8269 144.686 99.5666C144.261 99.3619 143.893 99.0857 143.696 98.7756C143.553 98.5386 143.619 98.2142 143.85 98.0547C144.08 97.8952 144.397 97.9719 144.559 98.2091C144.666 98.3733 144.888 98.5029 145.128 98.6147C145.609 98.8564 146.206 99.0092 146.578 99.1409C149.104 100.044 152.051 99.4879 154.417 98.2553C154.914 97.9911 155.567 97.494 155.98 96.9032C156.294 96.4556 156.459 95.9698 156.077 95.5488C155.258 94.6698 154.265 94.6018 153.245 94.8046C152.074 95.0233 150.855 95.5849 149.794 95.8775C149.339 96.0158 149.182 95.6159 149.164 95.5795C149.13 95.4887 149.045 95.1983 149.352 94.9676C149.371 94.9497 149.6 94.8445 149.677 94.7913C149.83 94.703 150 94.6511 150.153 94.5629C150.553 94.3696 150.936 94.1218 151.301 93.8738C152.182 93.2895 153.29 92.6903 153.714 91.7019C153.776 91.5401 153.837 91.3602 153.861 91.1978C153.865 91.0533 153.851 90.9085 153.703 90.8341C153.076 90.4639 152.416 90.5271 151.771 90.7531C151.031 91.014 150.303 91.4739 149.653 91.8445C149.252 92.0739 148.85 92.3034 148.467 92.5692C148.371 92.6402 148.253 92.8012 148.157 92.8903C148.002 93.0327 147.868 93.1032 147.755 93.1197C147.605 93.1357 147.474 93.1158 147.344 93.0417C147.271 92.9865 147.18 92.8948 147.127 92.7676C147.092 92.6948 147.024 92.4588 147.238 92.2087C147.277 92.155 147.547 91.9419 147.566 91.924C147.895 91.6213 148.261 91.3191 148.57 91.0161C149.267 90.3388 152.57 87.3116 154.665 85.0991C155.499 84.225 156.141 83.4927 156.303 83.1334C156.384 82.9357 156.448 82.6655 156.438 82.3942C156.424 82.2132 156.392 82.032 156.264 81.9218C156.209 81.8848 156.153 81.8841 156.078 81.883C155.965 81.8815 155.851 81.916 155.7 81.9501C155.283 82.0709 154.806 82.3173 154.252 82.635C151.555 84.2426 147.789 87.6792 147.055 88.3198C146.766 88.5688 146.476 88.836 146.187 89.1031C145.781 89.459 145.339 89.7963 144.898 90.1156C144.763 90.2041 144.629 90.3107 144.476 90.399C144.399 90.4521 144.283 90.577 144.206 90.6121C144.092 90.6829 143.978 90.6994 143.903 90.6983C143.772 90.6965 143.66 90.6588 143.569 90.5852C143.477 90.5116 143.386 90.4019 143.355 90.1846C143.288 89.316 143.299 88.34 143.176 87.4164C143.07 86.5834 142.831 85.8028 142.23 85.1799C141.52 84.4289 140.214 84.7724 139.719 85.6151C139.362 86.2428 139.429 87.1114 139.503 87.7813C139.632 89.1027 139.89 90.4981 140.265 91.7687C140.351 92.041 140.192 92.328 139.926 92.4147C139.66 92.5014 139.364 92.3527 139.298 92.0806C138.906 90.7556 138.613 89.2693 138.485 87.8937C138.399 87.0068 138.377 85.9038 138.852 85.0789C139.665 83.6802 141.801 83.2036 142.967 84.4128C143.713 85.2005 144.04 86.1811 144.197 87.2136C144.325 87.9385 144.342 88.6256 144.36 89.2766Z" fill="#3D248A"/>
<path d="M47.3392 137.713C47.3392 137.713 47.5258 137.31 47.8058 136.705C48.6899 134.738 50.9212 133.869 52.8804 134.798C53.8342 135.262 54.8937 135.774 55.8991 136.237C57.0643 136.794 58.3596 136.85 59.5244 136.365C60.6892 135.879 61.5712 134.906 62.0254 133.649C62.3396 132.695 63.0766 131.926 63.9392 131.599C64.8509 131.221 65.8365 131.287 66.7387 131.754C67.5352 132.175 68.3317 132.595 69.0741 132.968C71.2496 134.087 73.7906 133.208 74.8147 130.939C74.9546 130.637 75.0921 130.284 75.2837 129.98C75.797 128.87 76.738 128.044 77.8611 127.759C78.9842 127.473 80.2353 127.68 81.2015 128.393C81.3096 128.488 81.4154 128.534 81.5235 128.63C82.7036 129.485 84.1661 129.784 85.5423 129.391C86.9185 128.997 88.0069 128.017 88.611 126.656C89.0727 125.548 90.0137 124.722 91.0852 124.438C92.2058 124.103 93.4053 124.311 94.369 124.975C95.1188 125.496 95.8686 126.018 96.5644 126.491C97.4199 127.059 98.4621 127.223 99.4303 126.942C100.399 126.662 101.19 125.94 101.556 124.984C102.204 123.473 102.803 122.012 102.803 122.012C102.894 121.761 102.773 121.417 102.562 121.325C102.296 121.185 102.043 121.293 101.903 121.595C101.903 121.595 101.304 123.056 100.656 124.567C100.381 125.272 99.7863 125.788 99.1227 125.959C98.4101 126.181 97.68 126.057 97.09 125.629C96.3943 125.156 95.6445 124.634 94.8946 124.113C93.663 123.26 92.203 123.01 90.8267 123.404C89.4505 123.797 88.3129 124.828 87.7088 126.19C87.2447 127.248 86.3553 128.072 85.2838 128.356C84.2124 128.64 83.0129 128.432 82.1008 127.767C81.9926 127.671 81.8869 127.625 81.7787 127.529C80.5446 126.626 79.0305 126.329 77.6026 126.724C76.1748 127.119 75.0348 128.101 74.3815 129.513C74.244 129.866 74.1041 130.168 73.9125 130.473C73.1193 132.188 71.1385 132.899 69.4915 132.01C68.7491 131.638 67.8986 131.169 67.1562 130.797C66.0401 130.188 64.7448 130.132 63.58 130.617C62.4152 131.103 61.5307 132.027 61.1281 133.282C60.7623 134.237 60.0793 135.055 59.1676 135.433C58.2559 135.811 57.2212 135.795 56.319 135.329C55.3652 134.864 54.3057 134.353 53.3003 133.89C50.8642 132.729 48.0726 133.765 46.9552 136.236C46.6753 136.841 46.4886 137.245 46.4886 137.245C46.3978 137.496 46.4667 137.842 46.7297 137.932C46.9436 138.074 47.2484 137.965 47.3392 137.713Z" fill="#3D248A"/>
<path d="M54.9541 101.843C52.859 99.0813 50.7551 97.5641 48.8038 96.8838C44.2825 95.2276 40.5261 97.8685 39.176 98.8052C31.4771 104.198 27.2755 113.929 25.4999 123.721C23.6946 133.52 24.3048 143.345 26.1215 148.984C27.3629 152.775 28.818 157.505 31.2099 160.85C31.3722 161.082 31.6805 161.174 31.8457 160.992C32.051 160.839 32.0454 160.501 31.8831 160.269C29.5628 157.061 28.1793 152.468 26.9884 148.742C25.2137 143.246 24.6665 133.635 26.4163 124.073C28.1662 114.511 32.2322 104.957 39.785 99.7052C41.0272 98.8268 44.5086 96.314 48.6814 97.8488C50.4637 98.4862 52.3777 99.8891 54.3105 102.418C54.4728 102.651 54.7706 102.707 54.9759 102.554C55.122 102.413 55.146 102.07 54.9541 101.843Z" fill="#3D248A"/>
<path d="M57.3133 102.097C59.8667 105.487 58.8235 108.824 56.2615 111.98C52.2123 116.953 44.4123 121.425 39.8732 124.93C30.8416 131.916 31.3791 143.678 31.6028 147.498C31.7719 150.194 31.9116 153.541 33.0452 156.05C33.1703 156.298 33.4575 156.42 33.6905 156.292C33.9242 156.189 34.0341 155.888 33.9326 155.639C32.849 153.229 32.7372 150.032 32.5716 147.461C32.352 143.79 31.7789 132.454 40.4634 125.747C45.0254 122.216 52.8944 117.669 57.0131 112.645C59.8957 109.11 60.9509 105.349 58.0784 101.537C57.9066 101.314 57.5979 101.268 57.3899 101.446C57.1805 101.573 57.1422 101.899 57.3133 102.097Z" fill="#3D248A"/>
<path d="M81.7298 89.3172C83.6852 85.8221 88.6291 85.4149 92.2078 87.0776C96.2662 88.9439 101.985 91.5568 112.906 96.5449C115.414 97.6987 118.772 97.9362 122.498 97.529C127.995 96.9182 134.378 94.9501 140.023 92.473C140.281 92.3712 140.392 92.0658 140.281 91.8282C140.171 91.5907 139.875 91.455 139.617 91.5568C134.083 94 127.811 95.9681 122.387 96.5449C118.846 96.9182 115.673 96.7146 113.311 95.6627C102.428 90.6745 96.672 88.0617 92.6136 86.1954C88.5922 84.363 83.058 84.9399 80.8444 88.8761C80.6968 89.1136 80.8075 89.419 81.0288 89.5547C81.2871 89.6226 81.5822 89.5547 81.7298 89.3172Z" fill="#3D248A"/>
<path d="M107.988 113.953C118.696 115.48 129.506 112.257 137.639 105.097C141.332 101.839 144.416 99.1245 144.416 99.1245C144.619 98.9549 144.653 98.6155 144.45 98.4119C144.28 98.2083 143.941 98.1744 143.738 98.378C143.738 98.378 140.654 101.093 136.961 104.35C129.065 111.306 118.526 114.462 108.123 112.969C108.157 112.969 107.988 113.953 107.988 113.953Z" fill="#3D248A"/>
<path d="M114.392 228.819L120.143 229.069L122.599 228.944L123.8 234.345L121.344 234.47L113.1 235.722L110.569 235.851L106.674 228.09L104.975 224.242L111.652 222.031L113.35 225.88L114.392 228.819Z" fill="#00D5FF"/>
<path d="M125.492 235.357L110.675 236.971C110.224 237.011 109.972 237.481 110.097 237.972C110.233 238.485 110.709 238.845 111.16 238.805L125.978 237.19C126.428 237.15 126.68 236.68 126.555 236.189C126.419 235.676 125.943 235.317 125.492 235.357Z" fill="#3D248A"/>
<path d="M113.063 224.224C112.514 224.521 111.898 224.647 111.339 224.923C110.953 225.122 110.873 225.662 111.137 226.123C111.4 226.584 111.928 226.776 112.314 226.577C112.862 226.28 113.507 226.167 114.044 225.85C114.431 225.651 114.51 225.111 114.246 224.65C113.959 224.225 113.432 224.033 113.063 224.224Z" fill="#3D248A"/>
<path d="M113.885 227.215C113.378 227.617 112.908 228.051 112.389 228.433C112.038 228.69 112.015 229.249 112.317 229.662C112.619 230.075 113.166 230.229 113.49 229.96C114.025 229.57 114.502 229.108 115.009 228.706C115.344 228.456 115.367 227.897 115.037 227.472C114.745 227.079 114.237 226.957 113.885 227.215Z" fill="#3D248A"/>
<path d="M230.59 128.773H253.497C253.759 128.773 254.022 128.566 254.022 128.29C254.022 128.014 253.825 127.808 253.497 127.808H230.59C230.327 127.808 230.065 128.014 230.065 128.29C230.065 128.566 230.262 128.773 230.59 128.773Z" fill="#3D248A"/>
<path d="M230.59 139.273H253.497C253.759 139.273 254.022 139.066 254.022 138.79C254.022 138.514 253.825 138.308 253.497 138.308H230.59C230.327 138.308 230.065 138.514 230.065 138.79C230.065 139.066 230.262 139.273 230.59 139.273Z" fill="#3D248A"/>
<path d="M230.582 149.74H242.036C242.298 149.74 242.528 149.533 242.528 149.257C242.528 148.981 242.298 148.774 242.036 148.774H230.582C230.32 148.774 230.09 148.981 230.09 149.257C230.057 149.533 230.287 149.74 230.582 149.74Z" fill="#3D248A"/>
<path d="M295.804 1.87231L304.216 12.999L290.556 13.9761L295.804 1.87231Z" fill="#3D248A"/>
<path d="M23.3174 83.8528L31.7296 94.9792L18.0694 95.9561L23.3174 83.8528Z" fill="#3D248A"/>
<path d="M184.171 67.2413L224.798 91.8019L186.314 112.997L184.171 67.2413Z" fill="#FF5784"/>
<path d="M110.41 63.7693L114.603 68.2036C114.787 68.4164 114.787 68.7357 114.586 68.9131C114.385 69.0905 114.066 69.0905 113.881 68.8776L109.37 64.124C109.186 63.9467 109.186 63.6274 109.37 63.45L113.881 58.6964C114.066 58.4836 114.385 58.4836 114.586 58.661C114.787 58.8383 114.787 59.1576 114.603 59.3704L110.41 63.7693Z" fill="#3D248A"/>
<path d="M100.742 63.7693L104.935 68.2036C105.119 68.4164 105.119 68.7357 104.918 68.9131C104.717 69.0905 104.398 69.0905 104.213 68.8776L99.702 64.124C99.5175 63.9467 99.5175 63.6274 99.702 63.45L104.213 58.6964C104.398 58.4836 104.717 58.4836 104.918 58.661C105.119 58.8383 105.119 59.1576 104.935 59.3704L100.742 63.7693Z" fill="#3D248A"/>
<path d="M91.0566 63.7693L95.2493 68.2036C95.4338 68.4164 95.4338 68.7357 95.2325 68.9131C95.0313 69.0905 94.7127 69.0905 94.5282 68.8776L90.0168 64.124C89.8323 63.9467 89.8323 63.6274 90.0168 63.45L94.5282 58.6964C94.7127 58.4836 95.0313 58.4836 95.2325 58.661C95.4338 58.8383 95.4338 59.1576 95.2493 59.3704L91.0566 63.7693Z" fill="#3D248A"/>
<path d="M358.718 190.016H129.019C128.529 190.016 128.039 189.592 128.039 189.025V118.601C128.039 118.318 128.284 118.106 128.529 118.106C128.774 118.106 129.019 118.318 129.019 118.601V189.025H358.718V29.9865H129.019V90.7851C129.019 91.0682 128.774 91.2805 128.529 91.2805C128.284 91.2805 128.039 91.0682 128.039 90.7851V29.9865C128.039 29.4203 128.529 28.9956 129.019 28.9956H358.718C359.208 28.9956 359.698 29.4203 359.698 29.9865V189.025C359.698 189.592 359.208 190.016 358.718 190.016Z" fill="#3D248A"/>
<path d="M31.1057 108.401C36.3703 114.152 41.7547 119.603 47.7372 124.695C47.9765 124.875 48.2757 124.875 48.4552 124.636C48.6346 124.396 48.6347 124.096 48.3953 123.917C42.4726 118.884 37.1481 113.493 31.8834 107.742C31.7039 107.562 31.4048 107.502 31.1655 107.682C30.9262 107.861 30.9262 108.161 31.1057 108.401Z" fill="#3D248A"/>
<path d="M243.368 102.11C246 100.732 248.034 98.6956 250.427 96.8984C252.581 95.2809 254.854 93.8431 256.948 92.1657C257.188 91.986 257.188 91.6864 257.008 91.4468C256.829 91.2072 256.53 91.2072 256.29 91.3869C254.196 93.0643 251.923 94.5021 249.769 96.1196C247.436 97.8569 245.462 99.8338 242.889 101.212C242.65 101.332 242.53 101.631 242.71 101.871C242.829 102.17 243.129 102.23 243.368 102.11Z" fill="#3D248A"/>
<path d="M321.501 144.765C326.287 146.921 331.252 149.018 335.859 151.534C336.098 151.654 336.397 151.594 336.517 151.354C336.636 151.115 336.577 150.815 336.337 150.695C331.731 148.179 326.705 146.083 321.919 143.926C321.68 143.806 321.381 143.926 321.261 144.166C321.142 144.345 321.261 144.645 321.501 144.765Z" fill="#3D248A"/>
<path d="M98.4099 100.014C100.205 96.3594 102.299 92.6452 104.692 89.3502C104.871 89.1106 104.811 88.8111 104.572 88.6314C104.333 88.4516 104.034 88.5115 103.854 88.7512C101.461 92.106 99.3671 95.8802 97.5125 99.5345C97.3929 99.7742 97.5125 100.074 97.7518 100.194C97.9911 100.373 98.2902 100.253 98.4099 100.014Z" fill="#3D248A"/>
<path d="M74.7603 40.6511C75.8754 38.5239 76.6872 36.0604 78.0894 34.161C78.2324 33.9503 78.1835 33.6251 77.9753 33.4022C77.7559 33.2042 77.4655 33.201 77.2976 33.3948C75.8663 35.3229 75.0502 37.8322 73.906 39.9882C73.7878 40.2159 73.8795 40.554 74.11 40.7272C74.3474 40.9213 74.6421 40.8788 74.7603 40.6511Z" fill="#3D248A"/>
<path d="M67.4624 38.0525C67.0493 33.9726 66.8788 29.7723 66.2411 25.7017C66.203 25.4108 65.9589 25.189 65.7343 25.1984C65.4871 25.1915 65.3309 25.4205 65.3853 25.7077C66.0168 29.7582 66.1974 33.9348 66.5879 37.9985C66.6198 38.2695 66.8375 38.5187 67.0745 38.5494C67.3217 38.5562 67.4841 38.3472 67.4624 38.0525Z" fill="#3D248A"/>
<path d="M60.0567 40.4051C58.657 37.8243 57.0268 35.1888 55.4969 32.7023C55.3485 32.4569 55.0722 32.3698 54.8654 32.5032C54.6752 32.6328 54.6476 32.9402 54.8023 33.2056C56.3259 35.6721 57.9332 38.2913 59.3266 40.8521C59.4584 41.1013 59.7474 41.2285 59.9376 41.0989C60.1444 40.9654 60.1886 40.6543 60.0567 40.4051Z" fill="#3D248A"/>
<path d="M219.639 125.475C205.228 125.281 193.224 136.991 192.793 151.662C192.363 166.283 203.67 178.356 218.081 178.55C227.376 178.675 236.132 173.734 241.045 165.585L229.978 158.774C227.546 162.849 223.144 165.294 218.521 165.232C211.34 165.135 205.662 159.098 205.877 151.788C206.092 144.477 212.119 138.598 219.3 138.694L219.688 125.475L219.639 125.475Z" fill="#3D248A"/>
<path d="M179.893 167.529C179.653 165.612 178.816 163.635 178.218 161.838C177.859 160.76 177.38 159.682 177.021 158.663C176.004 156.087 174.748 153.631 173.791 150.995C173.671 150.755 173.85 150.456 174.09 150.336C174.329 150.216 174.628 150.396 174.748 150.636C175.705 153.212 176.961 155.728 177.978 158.244C178.397 159.322 178.816 160.4 179.175 161.479C179.953 163.695 181.029 166.331 181.029 168.788C181.029 169.027 180.91 169.147 180.85 169.207C180.73 169.327 180.551 169.387 180.371 169.327C180.312 169.327 180.192 169.267 180.072 169.147C179.953 169.027 179.773 168.728 179.653 168.608C179.414 168.368 179.175 168.129 178.936 167.889C177.739 166.631 176.782 165.193 175.705 163.875C173.671 161.419 171.637 158.963 169.423 156.626C168.047 155.129 166.611 153.092 164.817 151.953C164.936 152.553 165.235 153.631 165.355 153.99C165.953 156.027 166.671 158.004 167.509 159.981C169.543 164.894 172.295 169.986 173.252 175.198C173.312 175.497 173.192 175.617 173.132 175.677C173.073 175.797 172.953 175.857 172.833 175.857C172.773 175.857 172.654 175.857 172.474 175.797C172.415 175.797 172.295 175.677 172.235 175.557C172.056 175.377 171.816 174.958 171.637 174.778C171.338 174.419 171.039 174.059 170.739 173.7C169.304 172.082 167.868 170.465 166.492 168.847C163.142 164.774 159.672 160.76 156.082 156.866C155.723 156.506 154.527 155.069 153.51 154.35C153.33 154.23 153.21 154.17 153.091 154.05C153.091 154.11 153.151 154.17 153.151 154.23C153.27 154.47 153.39 154.769 153.45 155.009C153.809 156.806 154.287 158.603 154.766 160.4C156.68 167.23 160.748 174.958 160.569 182.147C160.569 182.387 160.449 182.506 160.39 182.566C160.27 182.686 160.09 182.686 159.911 182.686C159.851 182.686 159.731 182.626 159.672 182.506C159.612 182.446 159.492 182.267 159.432 182.147C159.073 181.787 158.296 180.829 157.996 180.469C156.381 178.313 154.766 176.036 153.21 173.88C150.518 170.105 147.826 166.271 145.313 162.317C145.194 162.078 145.254 161.778 145.493 161.599C145.732 161.479 146.031 161.539 146.211 161.778C148.664 165.672 151.356 169.506 154.048 173.281C155.544 175.437 157.219 177.714 158.834 179.87C159.014 180.05 159.313 180.469 159.612 180.829C159.313 174.119 155.603 166.99 153.809 160.7C153.33 158.903 152.792 157.046 152.433 155.248C152.373 155.069 152.253 154.769 152.134 154.53C152.014 154.29 151.954 154.05 151.954 153.871C151.954 153.631 152.014 153.451 152.134 153.271C152.193 153.152 152.373 153.092 152.493 153.032C152.672 152.972 152.911 152.972 153.151 153.032C153.39 153.092 153.749 153.271 154.048 153.511C155.125 154.29 156.441 155.788 156.8 156.207C160.39 160.101 163.859 164.175 167.269 168.248C168.645 169.926 170.021 171.483 171.457 173.101C171.577 173.221 171.637 173.34 171.756 173.46C170.56 168.967 168.227 164.594 166.492 160.4C165.654 158.424 164.936 156.387 164.338 154.29C164.218 153.871 163.859 152.493 163.74 152.013C163.68 151.834 163.5 151.474 163.441 151.295C163.381 151.115 163.381 150.995 163.441 150.935C163.5 150.755 163.56 150.636 163.74 150.576C163.859 150.516 163.979 150.456 164.218 150.576C166.611 151.594 168.406 154.11 170.141 155.967C172.295 158.364 174.389 160.76 176.423 163.276C177.5 164.594 178.457 165.972 179.653 167.23C179.653 167.35 179.773 167.47 179.893 167.529Z" fill="white"/>
<path d="M166.193 62.3322C170.859 52.9867 179.833 44.36 190.003 41.4245C192.456 40.7056 194.849 40.7655 197.362 40.5858C197.661 40.5858 197.84 40.3462 197.84 40.0466C197.84 39.7471 197.601 39.5674 197.302 39.5674C194.73 39.7471 192.217 39.6872 189.704 40.4061C179.294 43.4015 170.081 52.2678 165.295 61.853C165.176 62.0926 165.295 62.3921 165.535 62.512C165.774 62.6917 166.073 62.5719 166.193 62.3322Z" fill="white"/>
<path d="M234.215 40.2261C230.924 40.2261 227.753 41.0648 224.882 42.7422C222.908 43.8804 220.933 45.1984 219.258 46.8159C218.002 48.0141 216.985 49.332 216.267 50.8896C212.558 58.7974 216.865 65.1476 222.668 70.719C225.66 73.5946 229.488 76.1706 231.163 80.1245C232.779 83.9586 231.941 88.4516 231.343 92.4055C231.283 92.7051 231.463 92.9447 231.762 93.0046C232.061 93.0645 232.3 92.8848 232.36 92.5852C233.018 88.4516 233.856 83.7788 232.121 79.765C230.386 75.6913 226.497 72.9356 223.386 70.0001C217.882 64.7882 213.694 58.7974 217.164 51.3689C217.822 49.9311 218.779 48.7329 219.916 47.5947C221.531 46.0371 223.386 44.779 225.301 43.6408C227.993 42.0832 231.044 41.3044 234.155 41.2445C234.454 41.2445 234.633 41.0049 234.633 40.7652C234.753 40.4058 234.514 40.2261 234.215 40.2261Z" fill="white"/>
<path d="M238.163 40.6453C236.129 44.4195 237.266 48.613 239.838 51.848C242.351 55.0231 246.359 57.2996 250.008 57.4793C253.419 57.5991 256.589 56.2213 259.222 54.0047C263.17 50.7098 266.102 45.6775 267.298 41.3642C267.358 41.1246 267.238 40.825 266.939 40.7651C266.7 40.7052 266.401 40.825 266.341 41.1246C265.144 45.2582 262.333 50.1107 258.564 53.2858C256.111 55.3826 253.179 56.7005 250.008 56.5807C246.598 56.4609 242.949 54.3042 240.556 51.3089C238.223 48.3734 237.206 44.6591 239 41.2444C239.12 41.0048 239.06 40.7052 238.821 40.5854C238.582 40.2859 238.283 40.4057 238.163 40.6453Z" fill="white"/>
<path d="M285.007 50.8895C274.298 50.8296 263.11 59.6959 262.393 70.8387C262.034 76.2303 263.29 81.9216 265.982 86.6543C266.102 86.8939 266.401 86.9538 266.64 86.834C266.879 86.7142 266.939 86.4146 266.82 86.175C264.187 81.622 263.051 76.1105 263.35 70.8986C264.068 60.235 274.776 51.7881 284.947 51.848C285.246 51.848 285.425 51.6083 285.425 51.3687C285.485 51.1291 285.306 50.8895 285.007 50.8895Z" fill="white"/>
<path d="M163.979 75.3918C164.697 72.0969 166.91 69.3411 169.124 66.8849C176.662 58.6776 188.328 57.4794 198.618 60.7144C208.848 63.8895 217.643 73.6544 222.01 83.1797C222.13 83.4194 222.429 83.5392 222.668 83.4194C222.907 83.2996 223.027 83 222.907 82.7604C218.421 73.0554 209.387 63.0508 198.917 59.8158C188.268 56.5209 176.183 57.779 168.406 66.2858C166.073 68.8618 163.74 71.7973 163.022 75.2719C162.962 75.5715 163.141 75.8111 163.381 75.871C163.68 75.8111 163.919 75.6913 163.979 75.3918Z" fill="white"/>
<path d="M372.782 91.7649C371.465 100.095 378.605 108.634 386.647 110.022C391.153 110.786 395.798 109.467 400.165 108.426C403.493 107.593 406.543 107.176 408.554 104.26C408.692 104.052 408.623 103.705 408.415 103.566C408.207 103.427 407.86 103.497 407.722 103.705C405.85 106.343 402.938 106.69 399.888 107.454C395.659 108.495 391.222 109.814 386.786 109.05C379.229 107.731 372.505 99.6788 373.752 91.9038C373.822 91.6261 373.614 91.3484 373.337 91.3484C373.129 91.279 372.851 91.4872 372.782 91.7649Z" fill="white"/>
<path d="M369.454 137.929C368.553 135.429 367.999 131.611 368.761 128.487C369.246 126.474 370.286 124.739 372.158 123.767C373.683 123.003 375.347 122.656 377.011 122.379C378.675 122.101 380.338 122.17 382.002 122.517C383.943 122.934 385.884 123.698 387.41 124.878C391.43 128.071 392.956 134.388 392.54 139.317C392.54 139.595 392.748 139.803 393.025 139.872C393.302 139.872 393.51 139.664 393.579 139.386C394.065 134.18 392.401 127.516 388.103 124.114C386.439 122.795 384.359 121.962 382.28 121.546C380.546 121.198 378.675 121.129 376.941 121.407C375.139 121.684 373.406 122.101 371.811 122.934C369.662 124.045 368.484 126.058 367.929 128.349C367.167 131.681 367.721 135.707 368.692 138.345C368.761 138.623 369.038 138.762 369.316 138.623C369.385 138.484 369.524 138.206 369.454 137.929Z" fill="white"/>
<path d="M406.058 129.321C403.077 129.598 398.917 128.418 396.214 126.058C394.481 124.531 393.302 122.518 393.579 120.157C393.649 119.741 393.857 119.394 394.134 119.047C394.689 118.422 395.382 117.936 395.867 117.519C399.333 114.743 402.73 113.84 406.82 115.853C407.098 115.992 407.375 115.853 407.514 115.645C407.652 115.367 407.514 115.09 407.306 114.951C402.869 112.729 399.125 113.701 395.313 116.756C394.827 117.172 393.995 117.728 393.441 118.422C393.025 118.908 392.678 119.463 392.609 120.088C392.332 122.865 393.579 125.156 395.59 126.891C398.501 129.39 402.938 130.709 406.127 130.431C406.405 130.431 406.613 130.154 406.613 129.876C406.543 129.46 406.335 129.321 406.058 129.321Z" fill="white"/>
<path d="M340.892 126.267C346.577 125.989 349.766 122.657 351.222 118.075C353.44 111.48 352.123 102.247 350.598 96.6939C350.529 96.4162 350.251 96.2774 349.974 96.3468C349.697 96.4162 349.558 96.6939 349.627 96.9716C351.153 102.386 352.4 111.341 350.251 117.728C348.865 121.893 346.022 124.948 340.823 125.225C340.546 125.225 340.338 125.503 340.338 125.781C340.338 126.058 340.615 126.267 340.892 126.267Z" fill="white"/>
<path d="M197.182 181.967C196.943 182.207 196.704 182.447 196.524 182.626C195.148 183.645 193.772 184.603 192.396 185.562C188.866 188.018 185.636 190.834 181.986 193.05C181.448 193.35 180.91 193.889 180.371 194.189C179.893 194.428 179.414 194.608 178.876 194.488C178.636 194.428 178.457 194.308 178.397 194.189C178.277 194.009 178.217 193.769 178.277 193.47C178.337 193.23 178.517 192.93 178.696 192.631C178.935 192.271 179.234 191.912 179.294 191.612C180.072 189.755 180.85 187.838 181.807 186.041C184.021 181.728 186.533 177.594 188.747 173.281C188.866 173.041 189.166 172.921 189.405 173.041C189.644 173.161 189.764 173.46 189.644 173.7C187.431 178.013 184.918 182.147 182.704 186.46C181.807 188.258 181.029 190.115 180.251 191.972C180.072 192.331 179.713 192.871 179.414 193.35C179.414 193.41 179.354 193.41 179.354 193.47C179.593 193.41 179.893 193.29 180.132 193.11C180.61 192.811 181.029 192.451 181.448 192.152C185.097 189.935 188.328 187.119 191.798 184.663C193.174 183.705 194.55 182.746 195.926 181.728C196.225 181.488 196.763 180.949 197.122 180.589C197.362 180.35 197.601 180.23 197.78 180.23C198.02 180.17 198.199 180.29 198.319 180.41C198.379 180.53 198.498 180.649 198.439 180.949C197.84 184.543 196.464 188.018 195.088 191.373C194.789 192.032 194.49 192.751 194.191 193.41C197.601 191.553 200.832 188.497 203.763 186.101C204.84 185.202 205.917 184.244 206.934 183.225C207.173 182.986 207.592 182.387 207.891 182.027C208.13 181.788 208.31 181.608 208.43 181.548C208.669 181.488 208.848 181.548 208.968 181.668C209.028 181.728 209.207 181.907 209.147 182.207C209.088 184.723 207.652 188.018 206.814 190.295C206.216 191.912 205.677 193.53 204.96 195.087C204.84 195.327 204.541 195.447 204.302 195.327C204.062 195.207 203.943 194.907 204.062 194.668C204.78 193.17 205.319 191.553 205.917 189.995C206.575 188.138 207.652 185.622 208.071 183.465C207.891 183.645 207.771 183.884 207.652 183.944C206.635 184.963 205.558 185.921 204.421 186.88C201.071 189.636 197.362 193.17 193.473 194.907C193.234 195.027 193.054 194.967 192.994 194.907C192.815 194.847 192.755 194.728 192.695 194.488C192.695 194.428 192.695 194.308 192.755 194.129C192.815 193.949 193.054 193.649 193.114 193.47C193.473 192.631 193.832 191.792 194.191 190.954C195.328 188.198 196.524 185.083 197.182 181.967Z" fill="white"/>
<path d="M172.355 88.3319C170.5 90.189 169.184 92.3457 167.868 94.6222C159.612 109.539 168.825 125.534 181.508 134.101C181.747 134.281 182.046 134.221 182.226 133.981C182.405 133.742 182.345 133.442 182.106 133.263C169.842 124.995 160.808 109.539 168.825 95.1014C170.021 92.8849 171.338 90.7881 173.132 88.9909C173.312 88.8111 173.312 88.4517 173.132 88.272C172.893 88.1522 172.534 88.1522 172.355 88.3319Z" fill="#3D248A"/>
<path d="M181.209 133.143L179.713 125.954C179.653 125.655 179.833 125.415 180.132 125.355C180.431 125.295 180.67 125.475 180.73 125.775L182.346 133.563C182.405 133.682 182.346 133.862 182.226 133.982C182.106 134.102 181.987 134.162 181.867 134.162H173.432C173.132 134.162 172.953 133.922 172.953 133.682C172.953 133.383 173.192 133.203 173.432 133.203H181.209V133.143Z" fill="#3D248A"/>
<path d="M252.463 22.2418C252.796 12.2958 261.448 4.19843 270.327 3.0285C275.481 2.38931 280.313 3.75876 285.301 5.695C285.538 5.75967 285.827 5.65506 285.943 5.39827C285.983 5.1472 285.861 4.82573 285.612 4.67927C280.549 2.74874 275.48 1.31464 270.176 1.96524C260.921 3.16371 251.864 11.6225 251.526 22.0649C251.497 22.3978 251.758 22.626 251.995 22.6907C252.157 22.7611 252.435 22.5747 252.463 22.2418Z" fill="#3D248A"/>
<path d="M251.587 21.5507L258.201 17.0102C258.401 16.8335 258.72 16.9712 258.903 17.2C259.085 17.4288 258.983 17.7599 258.784 17.9366L251.685 22.7561C251.549 22.8472 251.401 22.8584 251.315 22.7839C251.155 22.7151 251.07 22.6407 250.973 22.4863L247.255 13.7917C247.146 13.5573 247.248 13.2262 247.459 13.1295C247.67 13.0327 247.989 13.1704 248.098 13.4048L251.587 21.5507Z" fill="#3D248A"/>
<path d="M387.643 142.763C383.224 170.425 375.07 200.498 356.419 224.744C334.492 253.331 295.331 260.191 277.318 238.203C277.186 238.011 276.838 238.015 276.623 238.212C276.408 238.408 276.377 238.718 276.51 238.91C294.85 261.32 334.758 254.373 357.104 225.278C375.858 200.875 384.104 170.53 388.625 142.712C388.656 142.402 388.523 142.21 388.236 142.252C387.95 142.295 387.622 142.531 387.643 142.763Z" fill="#3D248A"/>
<path d="M277.819 235.121L279.045 248.371C279.066 248.604 278.859 248.919 278.631 249C278.342 249.043 278.156 248.928 278.073 248.656L276.734 234.784C276.723 234.667 276.765 234.471 276.868 234.314C276.972 234.156 277.085 234.116 277.261 234.114L287.707 234.134C287.945 234.17 288.142 234.401 288.1 234.597C288.069 234.91 287.852 235.107 287.5 235.112L277.819 235.121Z" fill="#3D248A"/>
</svg>
