<svg width="65" height="68" viewBox="0 0 65 68" fill="none" xmlns="http://www.w3.org/2000/svg">
<path d="M53.5138 1.17145C55.7826 0.422975 58.1972 1.81708 58.6834 4.15607L64.718 33.1903C64.8296 33.7272 64.8296 34.2813 64.718 34.8182L58.6834 63.8524C58.1972 66.1914 55.7826 67.5855 53.5138 66.837L25.3522 57.5461C24.8314 57.3743 24.3515 57.0972 23.9423 56.7321L1.81531 36.9889C0.0327595 35.3983 0.0327577 32.6101 1.81531 31.0196L23.9423 11.2764C24.3515 10.9113 24.8314 10.6342 25.3522 10.4624L53.5138 1.17145Z" fill="#FF00F8"/>
<path d="M53.5138 1.17145C55.7826 0.422975 58.1972 1.81708 58.6834 4.15607L64.718 33.1903C64.8296 33.7272 64.8296 34.2813 64.718 34.8182L58.6834 63.8524C58.1972 66.1914 55.7826 67.5855 53.5138 66.837L25.3522 57.5461C24.8314 57.3743 24.3515 57.0972 23.9423 56.7321L1.81531 36.9889C0.0327595 35.3983 0.0327577 32.6101 1.81531 31.0196L23.9423 11.2764C24.3515 10.9113 24.8314 10.6342 25.3522 10.4624L53.5138 1.17145Z" fill="#00D5FF"/>
</svg>
