<svg width="585" height="437" viewBox="0 0 585 437" fill="none" xmlns="http://www.w3.org/2000/svg">
<path d="M6.7663 286.052C-1.38834 244.801 -2.17699 202.32 10.9565 161.615C24.7917 118.736 46.7929 76.6313 83.6615 47.7329C120.759 18.6552 169.024 -3.44701 216.303 0.659769C262.081 4.63613 284.765 57.8682 328.95 69.0392C380.373 82.0401 440.278 45.9067 487.155 69.1373C536.478 93.5808 594.725 142.584 582.459 194.672C568.299 254.81 468.398 258.661 430.544 309.552C405.18 343.652 444.37 405.534 407.98 429.245C370.386 453.74 322.155 412.433 277.248 409.437C244.995 407.286 213.948 416.166 181.682 414.148C138.937 411.474 90.5961 420.113 57.2261 395.675C23.3368 370.857 14.6804 326.086 6.7663 286.052Z" fill="white"/>
</svg>
